<?xml version="1.0" standalone="no"?>
<!DOCTYPE svg PUBLIC "-//W3C//DTD SVG 20010904//EN"
 "http://www.w3.org/TR/2001/REC-SVG-20010904/DTD/svg10.dtd">
<svg version="1.0" xmlns="http://www.w3.org/2000/svg"
 width="128.000000pt" height="128.000000pt" viewBox="0 0 128.000000 128.000000"
 preserveAspectRatio="xMidYMid meet">

<g transform="translate(0.000000,128.000000) scale(0.100000,-0.100000)"
fill="white" stroke="none">
<path d="M405 1196 c-172 -80 -215 -284 -90 -424 99 -110 262 -121 372 -27
150 128 114 372 -67 454 -63 29 -150 28 -215 -3z"/>
<path d="M313 611 c-73 -25 -127 -63 -168 -119 -47 -64 -65 -122 -65 -208 0
-67 2 -75 29 -102 18 -17 45 -32 68 -35 40 -7 523 -10 523 -3 0 2 -10 25 -22
52 -15 35 -22 70 -22 119 -1 87 34 166 97 220 41 35 41 37 22 51 -43 32 -116
44 -264 44 -114 -1 -157 -5 -198 -19z"/>
<path d="M905 569 c-57 -9 -87 -23 -130 -61 -86 -75 -110 -207 -57 -309 125
-240 481 -152 482 119 0 73 -15 114 -59 165 -62 70 -145 101 -236 86z m89
-100 c17 -14 26 -30 26 -50 0 -22 5 -29 20 -29 28 0 40 -30 40 -102 0 -97 -4
-99 -140 -96 l-115 3 0 95 c0 91 1 95 23 98 16 3 22 10 22 28 0 32 42 74 73
74 13 0 36 -9 51 -21z"/>
<path d="M910 431 c-18 -34 -11 -41 35 -41 37 0 45 3 45 18 0 41 -60 59 -80
23z"/>
<path d="M857 353 c-4 -3 -7 -35 -7 -70 l0 -63 95 0 95 0 0 70 0 70 -88 0
c-49 0 -92 -3 -95 -7z m117 -38 c6 -16 -1 -42 -17 -63 -7 -9 -13 -9 -23 -1
-14 12 -19 61 -7 72 12 12 41 7 47 -8z"/>
</g>
</svg>
