<?xml version="1.0" standalone="no"?>
<!DOCTYPE svg PUBLIC "-//W3C//DTD SVG 20010904//EN"
 "http://www.w3.org/TR/2001/REC-SVG-20010904/DTD/svg10.dtd">
<svg version="1.0" xmlns="http://www.w3.org/2000/svg"
 width="128.000000pt" height="128.000000pt" viewBox="0 0 128.000000 128.000000"
 preserveAspectRatio="xMidYMid meet">

<g transform="translate(0.000000,128.000000) scale(0.100000,-0.100000)"
fill="white" stroke="none">
<path d="M649 1251 c-26 -26 -29 -36 -29 -91 0 -51 4 -65 25 -85 22 -22 32
-25 105 -25 l80 0 0 -40 0 -40 -290 0 c-313 0 -350 -5 -370 -52 -7 -18 -50
-407 -50 -457 0 -8 159 -11 520 -11 361 0 520 3 520 11 0 50 -43 439 -50 457
-15 35 -68 52 -160 52 l-81 0 3 38 3 37 82 3 c77 3 83 4 107 33 21 25 26 41
26 86 0 47 -4 59 -29 84 l-29 29 -177 0 -177 0 -29 -29z m1 -458 c19 -25 21
-38 18 -106 -5 -108 -3 -107 -199 -107 -191 0 -189 -1 -189 122 0 117 2 118
194 118 l155 0 21 -27z m135 -28 c0 -28 -29 -25 -33 3 -3 19 0 23 15 20 10 -2
18 -12 18 -23z m110 0 c0 -28 -29 -25 -33 3 -3 19 0 23 15 20 10 -2 18 -12 18
-23z m110 0 c0 -28 -29 -25 -33 3 -3 19 0 23 15 20 10 -2 18 -12 18 -23z
m-220 -110 c0 -28 -29 -25 -33 3 -3 19 0 23 15 20 10 -2 18 -12 18 -23z m112
9 c8 -21 -13 -42 -28 -27 -13 13 -5 43 11 43 6 0 13 -7 17 -16z m110 0 c8 -21
-13 -42 -28 -27 -13 13 -5 43 11 43 6 0 13 -7 17 -16z m-220 -110 c8 -21 -13
-42 -28 -27 -13 13 -5 43 11 43 6 0 13 -7 17 -16z m110 0 c8 -21 -13 -42 -28
-27 -13 13 -5 43 11 43 6 0 13 -7 17 -16z m110 0 c8 -21 -13 -42 -28 -27 -13
13 -5 43 11 43 6 0 13 -7 17 -16z"/>
<path d="M331 766 c-7 -9 -11 -39 -9 -78 l3 -63 148 -3 148 -3 -3 78 -3 78
-136 3 c-109 2 -138 0 -148 -12z"/>
<path d="M76 379 l-26 -20 0 -154 c0 -136 2 -155 19 -176 l19 -24 552 0 552 0
19 24 c17 21 19 40 19 176 l0 154 -26 20 c-26 21 -36 21 -564 21 -528 0 -538
0 -564 -21z m642 -176 c-3 -16 -18 -18 -153 -18 -135 0 -150 2 -153 18 -3 16
9 17 153 17 144 0 156 -1 153 -17z m150 0 c-2 -12 -13 -18 -33 -18 -20 0 -31
6 -33 18 -3 14 4 17 33 17 29 0 36 -3 33 -17z"/>
</g>
</svg>
