<?xml version="1.0" standalone="no"?>
<!DOCTYPE svg PUBLIC "-//W3C//DTD SVG 20010904//EN"
 "http://www.w3.org/TR/2001/REC-SVG-20010904/DTD/svg10.dtd">
<svg version="1.0" xmlns="http://www.w3.org/2000/svg"
 width="128.000000pt" height="128.000000pt" viewBox="0 0 128.000000 128.000000"
 preserveAspectRatio="xMidYMid meet">

<g transform="translate(0.000000,128.000000) scale(0.100000,-0.100000)"
fill="white" stroke="none">
<path d="M91 1226 c-49 -27 -50 -39 -51 -384 0 -351 2 -366 55 -390 17 -8 94
-12 235 -12 l209 0 30 54 c17 29 31 56 31 59 0 4 -70 8 -156 9 l-156 3 -13 39
c-17 48 -23 54 -71 71 l-39 13 0 152 0 152 39 13 c48 17 54 23 71 71 l13 39
352 0 352 0 13 -39 c17 -48 23 -54 71 -71 l39 -13 0 -152 0 -152 -39 -13 c-48
-17 -54 -23 -71 -71 l-13 -39 -78 -5 -78 -5 -32 -55 -32 -55 191 -3 c129 -2
201 1 220 9 55 23 57 38 57 389 0 348 -2 364 -55 388 -40 18 -1061 16 -1094
-2z"/>
<path d="M310 1050 c-14 -33 -58 -75 -90 -85 -19 -6 -20 -15 -20 -125 0 -110
1 -119 20 -125 32 -10 76 -52 90 -85 l12 -30 154 0 c147 0 153 1 168 22 22 31
20 38 -12 38 -15 0 -48 10 -72 23 -132 66 -132 248 0 315 100 50 215 3 250
-103 10 -31 13 -33 49 -28 42 6 103 -10 121 -31 8 -11 -4 -40 -54 -125 l-64
-111 48 0 c40 0 50 4 55 20 10 32 52 76 85 90 l30 12 0 118 0 118 -30 12 c-33
14 -75 58 -85 90 -6 19 -15 20 -324 20 l-319 0 -12 -30z"/>
<path d="M572 960 c-68 -42 -91 -124 -52 -188 51 -84 157 -97 196 -24 10 20
29 49 42 64 18 21 22 35 17 57 -20 91 -125 138 -203 91z"/>
<path d="M811 804 c-17 -14 -85 -118 -151 -232 -66 -114 -124 -213 -128 -219
-6 -10 -17 -8 -47 7 -164 84 -317 -125 -184 -252 62 -59 151 -63 210 -10 44
40 432 714 416 724 -27 17 -85 8 -116 -18z m-346 -529 c50 -49 15 -135 -55
-135 -41 0 -80 39 -80 80 0 41 39 80 80 80 19 0 40 -9 55 -25z"/>
<path d="M796 360 c-36 -18 -40 -18 -51 -3 -11 15 -15 12 -37 -23 -49 -77 -48
-71 -5 -146 46 -80 84 -115 132 -124 59 -11 106 4 147 47 125 132 -24 332
-186 249z m129 -85 c50 -49 15 -135 -55 -135 -41 0 -80 39 -80 80 0 41 39 80
80 80 19 0 40 -9 55 -25z"/>
</g>
</svg>
