<?xml version="1.0" standalone="no"?>
<!DOCTYPE svg PUBLIC "-//W3C//DTD SVG 20010904//EN"
 "http://www.w3.org/TR/2001/REC-SVG-20010904/DTD/svg10.dtd">
<svg version="1.0" xmlns="http://www.w3.org/2000/svg"
 width="64.000000pt" height="64.000000pt" viewBox="0 0 64.000000 64.000000"
 preserveAspectRatio="xMidYMid meet">

<g transform="translate(0.000000,64.000000) scale(0.100000,-0.100000)"
fill="#000000" stroke="none">
<path d="M220 560 c0 -19 7 -20 100 -20 93 0 100 1 100 20 0 19 -7 20 -100 20
-93 0 -100 -1 -100 -20z"/>
<path d="M83 464 c-7 -18 4 -31 32 -36 19 -3 20 -13 25 -162 l5 -158 28 -24
c26 -22 36 -24 147 -24 111 0 121 2 147 24 l28 24 5 158 c5 149 6 159 25 162
30 6 40 19 25 37 -19 23 -458 23 -467 -1z m201 -100 c12 -11 16 -36 16 -97 0
-90 -8 -111 -36 -105 -17 3 -19 15 -22 102 -2 73 1 102 10 108 17 10 14 11 32
-8z m114 -98 c-3 -89 -5 -101 -22 -104 -28 -6 -36 15 -36 105 0 85 14 118 46
106 12 -4 14 -24 12 -107z"/>
</g>
</svg>
