<?xml version="1.0" standalone="no"?>
<!DOCTYPE svg PUBLIC "-//W3C//DTD SVG 20010904//EN"
 "http://www.w3.org/TR/2001/REC-SVG-20010904/DTD/svg10.dtd">
<svg version="1.0" xmlns="http://www.w3.org/2000/svg"
 width="128.000000pt" height="128.000000pt" viewBox="0 0 128.000000 128.000000"
 preserveAspectRatio="xMidYMid meet">

<g transform="translate(0.000000,128.000000) scale(0.100000,-0.100000)"
fill="white" stroke="none">
<path d="M418 1110 c-21 -5 -65 -24 -99 -41 -186 -93 -280 -314 -219 -512 41
-133 139 -238 269 -289 67 -26 213 -31 274 -10 38 14 38 14 20 34 -12 14 -18
36 -18 69 0 47 2 51 73 121 70 71 74 73 121 73 33 0 55 -6 69 -18 19 -18 20
-17 31 15 20 54 25 160 11 219 -33 138 -119 246 -245 306 -65 31 -88 36 -163
39 -48 2 -104 -1 -124 -6z m130 -162 c7 -7 12 -24 12 -39 0 -26 3 -28 51 -31
59 -3 82 -25 63 -55 -9 -15 -29 -18 -123 -21 l-111 -3 0 -39 0 -40 95 0 c88 0
98 -2 120 -25 22 -21 25 -33 25 -95 0 -62 -3 -74 -25 -95 -16 -17 -35 -25 -59
-25 -32 0 -35 -3 -38 -31 -6 -64 -70 -64 -76 -1 -3 30 -5 31 -54 34 -58 3 -81
25 -62 56 9 14 29 17 123 20 l111 3 0 39 0 40 -95 0 c-88 0 -98 2 -120 25 -22
21 -25 33 -25 95 0 62 3 74 25 95 16 17 35 25 60 25 32 0 35 3 35 28 0 31 16
52 40 52 9 0 21 -5 28 -12z"/>
<path d="M771 426 c-54 -55 -61 -79 -29 -100 13 -8 23 -8 38 1 18 12 19 9 22
-69 2 -64 7 -83 21 -92 12 -8 22 -8 35 0 13 9 18 28 20 92 3 78 4 81 22 69 24
-14 53 0 58 28 5 21 -94 125 -118 125 -9 0 -40 -24 -69 -54z"/>
<path d="M1052 468 c-7 -7 -12 -43 -12 -90 0 -76 -1 -78 -20 -66 -24 15 -53 1
-58 -27 -5 -21 94 -125 118 -125 24 0 123 104 118 125 -5 28 -34 42 -58 27
-19 -12 -20 -10 -20 66 0 79 -9 102 -40 102 -9 0 -21 -5 -28 -12z"/>
</g>
</svg>
