<?xml version="1.0" standalone="no"?>
<!DOCTYPE svg PUBLIC "-//W3C//DTD SVG 20010904//EN"
 "http://www.w3.org/TR/2001/REC-SVG-20010904/DTD/svg10.dtd">
<svg version="1.0" xmlns="http://www.w3.org/2000/svg"
 width="128.000000pt" height="128.000000pt" viewBox="0 0 128.000000 128.000000"
 preserveAspectRatio="xMidYMid meet">

<g transform="translate(0.000000,128.000000) scale(0.100000,-0.100000)"
fill="white" stroke="none">
<path d="M94 1228 c-11 -32 -18 -82 -18 -128 0 -124 11 -140 284 -414 l239
-241 32 30 31 30 73 -80 c40 -44 138 -152 217 -240 79 -88 156 -166 172 -173
82 -40 186 59 146 139 -7 13 -260 273 -564 577 -390 391 -557 552 -573 552
-17 0 -25 -11 -39 -52z"/>
<path d="M863 1127 c-146 -147 -151 -154 -164 -210 l-12 -58 86 -86 86 -86 58
13 c56 12 63 18 210 163 l153 151 -22 23 c-12 13 -26 23 -32 23 -6 0 -54 -44
-108 -97 l-97 -97 -26 24 -26 24 103 103 103 103 -28 27 -27 28 -103 -103
-103 -103 -24 26 -24 26 97 97 c53 54 97 102 97 108 0 6 -10 20 -23 32 l-23
22 -151 -153z"/>
<path d="M203 357 c-145 -144 -194 -200 -199 -223 -9 -45 19 -99 63 -119 65
-31 88 -16 296 192 l187 188 -78 78 -77 77 -192 -193z"/>
</g>
</svg>
