<?xml version="1.0" standalone="no"?>
<!DOCTYPE svg PUBLIC "-//W3C//DTD SVG 20010904//EN"
 "http://www.w3.org/TR/2001/REC-SVG-20010904/DTD/svg10.dtd">
<svg version="1.0" xmlns="http://www.w3.org/2000/svg"
 width="128.000000pt" height="128.000000pt" viewBox="0 0 128.000000 128.000000"
 preserveAspectRatio="xMidYMid meet">

<g transform="translate(0.000000,128.000000) scale(0.100000,-0.100000)"
fill="white" stroke="none">
<path d="M390 1211 l-235 -68 55 -16 c30 -8 140 -39 243 -68 l188 -52 227 63
c125 34 233 66 240 70 11 5 -448 141 -473 139 -5 0 -116 -31 -245 -68z"/>
<path d="M37 1047 c-42 -72 -45 -96 -18 -121 10 -9 115 -44 232 -77 165 -47
218 -58 235 -50 22 10 119 159 110 169 -8 7 -487 142 -506 142 -9 0 -33 -29
-53 -63z"/>
<path d="M927 1040 c-131 -37 -240 -70 -243 -72 -9 -10 88 -159 110 -169 16
-8 70 4 234 49 117 33 222 68 232 77 28 26 25 50 -17 122 -27 46 -43 63 -58
62 -11 -1 -127 -31 -258 -69z"/>
<path d="M580 838 c-63 -104 -80 -107 -306 -43 -87 25 -165 45 -172 45 -10 0
-12 -43 -10 -197 l3 -196 103 -28 102 -27 0 130 0 130 29 29 29 29 131 0 131
0 0 90 c0 50 -2 90 -4 90 -2 0 -19 -24 -36 -52z"/>
<path d="M660 800 l0 -90 131 0 131 0 29 -29 29 -29 0 -130 0 -130 103 27 102
27 3 197 c2 130 -1 197 -8 197 -6 0 -83 -20 -172 -45 -89 -25 -178 -45 -198
-45 -44 1 -69 21 -110 88 -17 28 -34 52 -36 52 -2 0 -4 -40 -4 -90z"/>
<path d="M350 641 c-6 -12 -10 -130 -10 -314 0 -272 1 -295 18 -310 16 -15 51
-17 284 -17 244 0 266 1 281 18 15 16 17 53 17 311 0 182 -4 300 -10 312 -10
18 -24 19 -290 19 -266 0 -280 -1 -290 -19z m196 -62 c7 -12 -73 -99 -92 -99
-19 0 -47 38 -40 56 4 11 13 14 30 10 16 -4 29 1 46 19 25 27 45 32 56 14z
m321 -45 c10 -27 -17 -34 -138 -34 -85 0 -120 4 -128 13 -23 28 9 37 136 37
104 0 125 -3 130 -16z m-359 -151 l-47 -47 -26 24 c-29 27 -28 45 2 45 11 1
35 13 53 28 30 26 34 27 49 13 14 -15 11 -20 -31 -63z m357 7 c0 -12 -23 -15
-132 -18 -128 -2 -133 -2 -133 18 0 20 5 20 133 18 109 -3 132 -6 132 -18z
m-318 -87 c6 -16 -66 -93 -87 -93 -22 0 -54 35 -45 50 4 7 15 10 25 7 12 -3
29 6 46 24 28 30 54 35 61 12z m318 -53 c0 -12 -23 -15 -132 -18 -128 -2 -133
-2 -133 18 0 20 5 20 133 18 109 -3 132 -6 132 -18z m-319 -81 c7 -12 -73 -99
-92 -99 -6 0 -19 9 -29 20 -14 15 -15 23 -6 34 6 8 20 12 29 9 10 -2 28 7 41
21 26 28 46 33 57 15z m313 -38 c8 -5 11 -16 8 -25 -5 -13 -26 -16 -130 -16
-91 0 -128 4 -136 13 -22 28 9 37 129 37 63 0 121 -4 129 -9z"/>
</g>
</svg>
