<?xml version="1.0" standalone="no"?>
<!DOCTYPE svg PUBLIC "-//W3C//DTD SVG 20010904//EN"
 "http://www.w3.org/TR/2001/REC-SVG-20010904/DTD/svg10.dtd">
<svg version="1.0" xmlns="http://www.w3.org/2000/svg"
 width="128.000000pt" height="128.000000pt" viewBox="0 0 128.000000 128.000000"
 preserveAspectRatio="xMidYMid meet">

<g transform="translate(0.000000,128.000000) scale(0.100000,-0.100000)"
fill="white" stroke="none">
<path d="M122 1228 c-7 -7 -12 -24 -12 -40 0 -17 -7 -31 -20 -38 -11 -6 -27
-25 -36 -42 -32 -62 5 -131 82 -153 32 -9 39 -15 39 -35 0 -32 -38 -39 -66
-14 -15 14 -24 16 -37 8 -28 -18 -25 -43 7 -71 17 -15 31 -37 31 -48 0 -31 15
-47 41 -43 18 2 25 10 27 32 2 17 18 42 38 61 67 63 34 158 -63 179 -32 7 -51
35 -38 56 10 16 46 12 67 -7 15 -13 23 -15 36 -7 29 19 26 50 -7 75 -21 15
-31 31 -31 49 0 27 -16 50 -35 50 -6 0 -16 -5 -23 -12z"/>
<path d="M998 1223 c-34 -39 -178 -285 -178 -304 0 -14 10 -24 30 -32 l30 -11
0 -383 0 -383 -35 0 -35 0 -2 313 -3 312 -124 3 c-82 2 -128 -1 -137 -9 -11
-9 -14 -68 -14 -315 l0 -304 -35 0 -35 0 -2 208 -3 207 -124 3 c-82 2 -128 -1
-137 -9 -11 -9 -14 -53 -14 -210 l0 -198 -61 -3 c-69 -3 -94 -23 -70 -52 12
-14 76 -16 591 -16 515 0 579 2 591 16 18 21 0 48 -35 52 l-26 3 0 382 0 383
30 11 c20 8 30 18 30 32 0 11 -37 80 -81 153 -88 144 -106 168 -124 168 -7 0
-19 -8 -27 -17z"/>
</g>
</svg>
