<?xml version="1.0" standalone="no"?>
<!DOCTYPE svg PUBLIC "-//W3C//DTD SVG 20010904//EN"
 "http://www.w3.org/TR/2001/REC-SVG-20010904/DTD/svg10.dtd">
<svg version="1.0" xmlns="http://www.w3.org/2000/svg"
 width="128.000000pt" height="128.000000pt" viewBox="0 0 128.000000 128.000000"
 preserveAspectRatio="xMidYMid meet">

<g transform="translate(0.000000,128.000000) scale(0.100000,-0.100000)"
fill="white" stroke="none">
<path d="M109 983 l-109 -107 0 -57 c0 -64 6 -69 71 -69 l39 0 0 -270 c0 -261
1 -270 20 -280 12 -6 30 -8 40 -5 19 6 20 17 20 281 l0 274 45 0 45 0 2 -162
3 -163 35 0 35 0 3 163 2 162 280 0 280 0 2 -162 3 -163 35 0 35 0 3 163 2
162 45 0 45 0 0 -274 c0 -264 1 -275 20 -281 10 -3 28 -1 40 5 19 10 20 19 20
280 l0 270 39 0 c65 0 71 5 71 69 l0 57 -109 107 -108 107 -423 0 -423 0 -108
-107z"/>
</g>
</svg>
