<?xml version="1.0" standalone="no"?>
<!DOCTYPE svg PUBLIC "-//W3C//DTD SVG 20010904//EN"
 "http://www.w3.org/TR/2001/REC-SVG-20010904/DTD/svg10.dtd">
<svg version="1.0" xmlns="http://www.w3.org/2000/svg"
 width="128.000000pt" height="128.000000pt" viewBox="0 0 128.000000 128.000000"
 preserveAspectRatio="xMidYMid meet">

<g transform="translate(0.000000,128.000000) scale(0.100000,-0.100000)"
fill="#000000" stroke="none">
<path d="M255 1165 c-51 -18 -101 -72 -115 -125 -31 -117 57 -233 176 -233 67
0 102 19 116 64 6 22 27 57 45 79 30 34 34 45 28 73 -16 73 -66 128 -133 147
-48 13 -68 12 -117 -5z"/>
<path d="M897 1165 c-64 -22 -103 -66 -118 -133 -7 -30 -3 -38 31 -72 22 -22
47 -61 57 -90 16 -45 22 -52 55 -61 96 -25 204 48 223 152 16 84 -47 185 -130
208 -51 14 -71 13 -118 -4z"/>
<path d="M557 959 c-109 -58 -125 -206 -32 -296 152 -146 388 41 285 225 -48
86 -164 118 -253 71z"/>
<path d="M161 776 c-53 -19 -111 -74 -137 -130 -21 -45 -24 -66 -24 -172 l0
-122 83 -20 c45 -11 107 -23 138 -27 l57 -7 7 63 c4 35 16 86 27 112 22 52
104 133 144 143 13 3 24 7 24 9 0 2 -13 29 -30 60 -16 31 -30 68 -30 81 0 24
0 24 -112 23 -62 0 -128 -6 -147 -13z"/>
<path d="M876 752 c-3 -22 -17 -55 -31 -76 -31 -45 -31 -52 -2 -60 34 -8 104
-72 134 -123 20 -34 27 -63 31 -120 l5 -76 66 6 c36 3 96 15 134 27 l67 21 0
122 c0 107 -3 128 -24 173 -27 59 -90 116 -145 132 -21 7 -81 12 -133 12 l-95
0 -7 -38z"/>
<path d="M507 586 c-65 -18 -117 -62 -150 -126 -26 -52 -27 -60 -25 -179 l3
-125 70 -18 c175 -45 373 -45 505 0 l55 19 3 112 c3 130 -7 174 -51 233 -53
70 -106 90 -245 94 -78 3 -133 -1 -165 -10z"/>
</g>
</svg>
