<?xml version="1.0" standalone="no"?>
<!DOCTYPE svg PUBLIC "-//W3C//DTD SVG 20010904//EN"
 "http://www.w3.org/TR/2001/REC-SVG-20010904/DTD/svg10.dtd">
<svg version="1.0" xmlns="http://www.w3.org/2000/svg"
 width="128.000000pt" height="128.000000pt" viewBox="0 0 128.000000 128.000000"
 preserveAspectRatio="xMidYMid meet">

<g transform="translate(0.000000,128.000000) scale(0.100000,-0.100000)" stroke="none">
<path d="M590 1268 c-40 -22 -71 -77 -68 -121 l3 -39 -57 -18 c-198 -62 -347
-237 -383 -452 -4 -29 -11 -38 -26 -38 -31 0 -59 -19 -59 -38 0 -35 21 -42
121 -42 l98 0 -24 -42 c-13 -24 -26 -57 -29 -74 -5 -20 -34 -57 -86 -109 -44
-44 -80 -86 -80 -95 0 -20 180 -200 200 -200 8 0 51 37 96 81 l82 81 178 20
179 20 145 116 c164 131 169 137 170 175 l0 27 103 0 c106 0 127 7 127 42 0
19 -28 38 -59 38 -15 0 -22 9 -26 38 -36 209 -189 392 -379 451 -61 19 -61 19
-58 55 3 39 -15 81 -46 109 -26 24 -90 31 -122 15z m85 -102 c0 -52 -63 -62
-73 -12 -7 33 6 47 40 44 29 -3 33 -7 33 -32z m90 -141 c168 -44 288 -162 339
-334 30 -101 81 -91 -464 -91 -545 0 -494 -10 -464 91 49 168 172 289 337 334
70 18 179 18 252 0z m-211 -527 c21 -34 -4 -53 -75 -56 -87 -3 -107 -9 -114
-33 -14 -43 7 -49 170 -49 l153 0 62 48 c131 100 138 104 184 109 36 4 46 2
46 -9 0 -8 -62 -64 -139 -125 l-138 -110 -179 -18 -179 -19 -76 -73 -75 -73
-52 53 -52 53 70 69 c59 59 71 76 80 119 12 58 32 85 81 115 29 18 47 21 128
19 77 -3 96 -6 105 -20z m168 -18 c-27 -22 -58 -40 -69 -40 -15 0 -18 8 -18
40 l0 40 69 0 69 0 -51 -40z" fill="white"/>
</g>
</svg>
