<?xml version="1.0" standalone="no"?>
<!DOCTYPE svg PUBLIC "-//W3C//DTD SVG 20010904//EN"
 "http://www.w3.org/TR/2001/REC-SVG-20010904/DTD/svg10.dtd">
<svg version="1.0" xmlns="http://www.w3.org/2000/svg"
 width="128.000000pt" height="128.000000pt" viewBox="0 0 128.000000 128.000000"
 preserveAspectRatio="xMidYMid meet">

<g transform="translate(0.000000,128.000000) scale(0.100000,-0.100000)"
fill="white" stroke="none">
<path d="M585 1255 c-33 -32 -33 -78 -1 -110 l24 -24 -42 -6 c-121 -19 -242
-81 -326 -168 -47 -49 -120 -161 -120 -184 0 -11 96 -13 520 -13 414 0 520 3
520 13 0 23 -73 137 -117 183 -82 85 -209 150 -329 169 l-42 6 24 24 c32 32
32 78 -1 110 -15 16 -36 25 -55 25 -19 0 -40 -9 -55 -25z"/>
<path d="M9 654 c-9 -11 -10 -20 -2 -32 9 -16 65 -17 636 -20 624 -2 626 -2
632 18 16 51 29 50 -635 50 -551 0 -619 -2 -631 -16z"/>
<path d="M200 488 c-11 -18 -25 -51 -31 -74 -8 -31 -30 -60 -90 -120 -43 -43
-79 -85 -79 -94 0 -20 180 -200 200 -200 8 0 51 37 96 81 l82 81 178 20 179
20 147 117 c143 113 164 135 170 176 3 18 -3 20 -78 23 l-81 3 -54 -44 c-30
-24 -76 -60 -102 -80 l-49 -37 -144 0 c-144 0 -184 8 -184 35 0 35 29 45 130
45 105 0 131 10 145 58 l6 22 -210 0 -211 0 -20 -32z"/>
</g>
</svg>
